<svg xmlns="http://www.w3.org/2000/svg" viewBox="0 0 512 512" width="512" height="512">
  <g stroke="#3A2D1C" stroke-width="14" stroke-linecap="round" stroke-linejoin="round">

    <!-- Strohhalm -->
    <path d="M 300 170 L 342 84" fill="none" stroke="#3A2D1C" stroke-width="34" />
    <path d="M 300 170 L 342 84" fill="none" stroke="#C9A227" stroke-width="18" />

    <!-- Becher -->
    <path d="M 170 205 L 342 205 L 322 428 A 20 20 0 0 1 302 446 L 210 446 A 20 20 0 0 1 190 428 Z"
          fill="#F6EBD4" />

    <!-- Farbband -->
    <path d="M 177 283 L 335 283 L 330 341 L 182 341 Z" fill="#C9A227" stroke="none" />
    <path d="M 177 283 L 335 283" fill="none" />
    <path d="M 182 341 L 330 341" fill="none" />

    <!-- Becher-Umriss erneut, damit die Kanten sauber bleiben -->
    <path d="M 170 205 L 342 205 L 322 428 A 20 20 0 0 1 302 446 L 210 446 A 20 20 0 0 1 190 428 Z"
          fill="none" />

    <!-- Deckel -->
    <rect x="150" y="158" width="212" height="50" rx="18" fill="#F6EBD4" />

  </g>
</svg>
